<svg width="47" height="16" viewBox="0 0 47 16" fill="none" xmlns="http://www.w3.org/2000/svg">
<path d="M0 15.9999H16V-0.000117302H0V15.9999ZM25.1364 12.8344V5.33443H26.4091V12.8344H25.1364ZM22.0227 9.72079V8.44806H29.5227V9.72079H22.0227ZM35.956 3.08443C36.4332 3.08822 36.9105 3.17912 37.3878 3.35715C37.8651 3.53519 38.3007 3.83064 38.6946 4.24352C39.0885 4.65261 39.4048 5.21132 39.6435 5.91965C39.8821 6.62799 40.0014 7.51625 40.0014 8.58443C40.0014 9.61852 39.9029 10.5371 39.706 11.3401C39.5128 12.1394 39.2325 12.8136 38.8651 13.3628C38.5014 13.9121 38.0582 14.3287 37.5355 14.6128C37.0166 14.8969 36.4295 15.039 35.7741 15.039C35.1226 15.039 34.5412 14.9102 34.0298 14.6526C33.5223 14.3912 33.1056 14.0295 32.7798 13.5674C32.4579 13.1015 32.2514 12.5617 32.1605 11.9481H33.5469C33.6719 12.4822 33.92 12.9234 34.2912 13.2719C34.6662 13.6166 35.1605 13.789 35.7741 13.789C36.6719 13.789 37.3802 13.3969 37.8991 12.6128C38.4219 11.8287 38.6832 10.7208 38.6832 9.28897H38.5923C38.3802 9.60716 38.1283 9.88178 37.8366 10.1128C37.545 10.3439 37.2211 10.5219 36.8651 10.6469C36.509 10.7719 36.1302 10.8344 35.7287 10.8344C35.062 10.8344 34.4503 10.6697 33.8935 10.3401C33.3404 10.0068 32.8973 9.55034 32.5639 8.97079C32.2344 8.38746 32.0696 7.72079 32.0696 6.97079C32.0696 6.25867 32.2287 5.60716 32.5469 5.01625C32.8688 4.42155 33.3196 3.94806 33.8991 3.59579C34.4825 3.24352 35.1681 3.07306 35.956 3.08443ZM35.956 4.33443C35.4787 4.33443 35.0488 4.45375 34.6662 4.69238C34.2874 4.92723 33.9863 5.24541 33.7628 5.64693C33.5431 6.04466 33.4332 6.48594 33.4332 6.97079C33.4332 7.45564 33.5393 7.89693 33.7514 8.29466C33.9673 8.68859 34.2609 9.00299 34.6321 9.23784C35.0071 9.4689 35.4332 9.58443 35.9105 9.58443C36.2704 9.58443 36.6056 9.51435 36.9162 9.3742C37.2268 9.23026 37.4976 9.03519 37.7287 8.78897C37.9635 8.53897 38.1473 8.25678 38.2798 7.94238C38.4124 7.6242 38.4787 7.29276 38.4787 6.94806C38.4787 6.49352 38.3688 6.06738 38.1491 5.66965C37.9332 5.27193 37.634 4.94996 37.2514 4.70375C36.8726 4.45753 36.4408 4.33443 35.956 4.33443ZM46.3267 3.24352V14.8799H44.9176V4.72079H44.8494L42.0085 6.60715V5.17534L44.9176 3.24352H46.3267Z" fill="#5C5C5C"/>
</svg>
