<svg width="12" height="12" viewBox="0 0 12 12" fill="none" xmlns="http://www.w3.org/2000/svg">
<path d="M7.08571 7.67619C7.25302 7.67619 7.39817 7.61468 7.52119 7.49167C7.64421 7.36865 7.70571 7.22349 7.70571 7.05619C7.70571 6.88889 7.64421 6.74373 7.52119 6.62071C7.39817 6.4977 7.25302 6.43619 7.08571 6.43619C6.91841 6.43619 6.77325 6.4977 6.65024 6.62071C6.52722 6.74373 6.46571 6.88889 6.46571 7.05619C6.46571 7.22349 6.52722 7.36865 6.65024 7.49167C6.77325 7.61468 6.91841 7.67619 7.08571 7.67619ZM7.08571 5.78667C7.19397 5.78667 7.29484 5.7473 7.38833 5.66857C7.48183 5.58984 7.53841 5.48651 7.55809 5.35857C7.57778 5.24048 7.6196 5.13222 7.68357 5.03381C7.74754 4.9354 7.86317 4.80254 8.03048 4.63524C8.32571 4.34 8.52254 4.10135 8.62095 3.91929C8.71937 3.73722 8.76857 3.52317 8.76857 3.27714C8.76857 2.83429 8.61357 2.47262 8.30357 2.19214C7.99357 1.91167 7.58762 1.77143 7.08571 1.77143C6.76095 1.77143 6.46571 1.84524 6.2 1.99286C5.93429 2.14048 5.7227 2.35206 5.56524 2.62762C5.50619 2.72603 5.50127 2.82937 5.55048 2.93762C5.59968 3.04587 5.68333 3.1246 5.80143 3.17381C5.90968 3.22302 6.01548 3.22794 6.11881 3.18857C6.22214 3.14921 6.30825 3.08032 6.37714 2.9819C6.46571 2.85397 6.56905 2.75802 6.68714 2.69405C6.80524 2.63008 6.9381 2.5981 7.08571 2.5981C7.3219 2.5981 7.51381 2.66452 7.66143 2.79738C7.80905 2.93024 7.88286 3.10984 7.88286 3.33619C7.88286 3.47397 7.84349 3.60436 7.76476 3.72738C7.68603 3.8504 7.54825 4.0054 7.35143 4.19238C7.06603 4.43841 6.88397 4.62786 6.80524 4.76071C6.72651 4.89357 6.6773 5.08794 6.65762 5.34381C6.64778 5.4619 6.68468 5.56524 6.76833 5.65381C6.85198 5.74238 6.95778 5.78667 7.08571 5.78667ZM3.54286 9.44762C3.2181 9.44762 2.94008 9.33198 2.70881 9.10071C2.47754 8.86944 2.3619 8.59143 2.3619 8.26667V1.18095C2.3619 0.85619 2.47754 0.578175 2.70881 0.346905C2.94008 0.115635 3.2181 0 3.54286 0H10.6286C10.9533 0 11.2313 0.115635 11.4626 0.346905C11.6939 0.578175 11.8095 0.85619 11.8095 1.18095V8.26667C11.8095 8.59143 11.6939 8.86944 11.4626 9.10071C11.2313 9.33198 10.9533 9.44762 10.6286 9.44762H3.54286ZM1.18095 11.8095C0.85619 11.8095 0.578175 11.6939 0.346905 11.4626C0.115635 11.2313 0 10.9533 0 10.6286V2.95238C0 2.78508 0.0565873 2.64484 0.169762 2.53167C0.282936 2.41849 0.423175 2.3619 0.590476 2.3619C0.757778 2.3619 0.898016 2.41849 1.01119 2.53167C1.12437 2.64484 1.18095 2.78508 1.18095 2.95238V10.6286H8.85714C9.02444 10.6286 9.16468 10.6852 9.27786 10.7983C9.39103 10.9115 9.44762 11.0517 9.44762 11.219C9.44762 11.3863 9.39103 11.5266 9.27786 11.6398C9.16468 11.7529 9.02444 11.8095 8.85714 11.8095H1.18095Z" fill="white"/>
</svg>
